# xmcd
#
# Track frame offsets: 
#        150
#        16969
#        32363
#        49098
#        70097
#        91191
#        104841
#        132891
#        149991
#        181577
#        197065
#
# Disc length: 2889 seconds
#
# Revision: 0
# Processed by: cddbd v1.5.2PL0 Copyright (c) Steve Scherf et al.
# Submitted via: ExactAudioCopy v1.3
#
DISCID=960b470b
DTITLE=Jack Broadbent - Along the Trail of Tears
DYEAR=1900
DGENRE=Alternative
TTITLE0=Holdin
TTITLE1=Big Black Boat
TTITLE2=On The Road Again
TTITLE3=Far Off Galaxy
TTITLE4=Don't Be Lonesome
TTITLE5=Without You
TTITLE6=People Live In Hell
TTITLE7=Making My Way
TTITLE8=Heal
TTITLE9=The Plane Overhead
TTITLE10=Along The Trail Of Tears
EXTD=
EXTT0=
EXTT1=
EXTT2=
EXTT3=
EXTT4=
EXTT5=
EXTT6=
EXTT7=
EXTT8=
EXTT9=
EXTT10=
PLAYORDER=
